<svg width="25" height="28" viewBox="0 0 25 28" fill="none" xmlns="http://www.w3.org/2000/svg">
<path d="M22.7313 8.66951C22.6354 8.51442 22.5075 8.38766 22.3584 8.30009C22.2092 8.21252 22.0434 8.16674 21.875 8.16667H7.63855L6.43647 4.93501C6.27885 4.50943 6.01196 4.14586 5.66962 3.89038C5.32728 3.63491 4.92492 3.49904 4.51355 3.50001H2.08334V5.83334H4.51355L9.45522 19.1158C9.53437 19.3284 9.6679 19.5099 9.83899 19.6376C10.0101 19.7652 10.2111 19.8334 10.4167 19.8333H18.75C19.1844 19.8333 19.5729 19.5312 19.726 19.0773L22.851 9.74401C22.9101 9.5674 22.9301 9.37738 22.9092 9.19025C22.8883 9.00311 22.8273 8.82443 22.7313 8.66951ZM18.0281 17.5H11.1115L8.5073 10.5H20.3719L18.0281 17.5Z" fill="white"/>
<path d="M10.9375 24.5C11.8004 24.5 12.5 23.7165 12.5 22.75C12.5 21.7835 11.8004 21 10.9375 21C10.0746 21 9.375 21.7835 9.375 22.75C9.375 23.7165 10.0746 24.5 10.9375 24.5Z" fill="white"/>
<path d="M18.2292 24.5C19.0921 24.5 19.7917 23.7165 19.7917 22.75C19.7917 21.7835 19.0921 21 18.2292 21C17.3662 21 16.6667 21.7835 16.6667 22.75C16.6667 23.7165 17.3662 24.5 18.2292 24.5Z" fill="white"/>
</svg>
