<svg width="13" height="14" viewBox="0 0 13 14" fill="none" xmlns="http://www.w3.org/2000/svg">
<path d="M9.42498 12.8332C7.21351 12.8301 5.09344 11.8827 3.5297 10.1987C1.96595 8.51464 1.08618 6.23148 1.08331 3.8499C1.08331 3.13824 1.34583 2.45572 1.81311 1.9525C2.28038 1.44928 2.91415 1.16657 3.57498 1.16657C3.71491 1.16542 3.85461 1.1791 3.99206 1.2074C4.12494 1.22858 4.25557 1.26375 4.38206 1.3124C4.47103 1.34602 4.55031 1.40407 4.61206 1.4808C4.67381 1.55753 4.71589 1.65029 4.73415 1.7499L5.47623 5.2499C5.49623 5.34491 5.49382 5.44379 5.46922 5.53754C5.44462 5.63128 5.39861 5.7169 5.3354 5.78657C5.26498 5.86824 5.25956 5.87407 4.59331 6.2474C5.12685 7.5079 6.06296 8.52016 7.23123 9.0999C7.58331 8.37657 7.58873 8.37074 7.66456 8.2949C7.72926 8.22682 7.80876 8.17728 7.89581 8.15078C7.98286 8.12429 8.07468 8.1217 8.1629 8.14324L11.4129 8.9424C11.5024 8.96478 11.5852 9.01132 11.6534 9.07765C11.7217 9.14399 11.7731 9.22793 11.8029 9.32157C11.8486 9.46003 11.883 9.60251 11.9058 9.7474C11.9276 9.89401 11.9385 10.0423 11.9383 10.1907C11.9283 10.8994 11.6584 11.575 11.1875 12.07C10.7167 12.5651 10.083 12.8395 9.42498 12.8332ZM3.57498 2.33324C3.20191 2.33477 2.84452 2.49506 2.58071 2.77916C2.31691 3.06325 2.16807 3.44813 2.16665 3.8499C2.16808 5.92254 2.93326 7.90984 4.29415 9.37542C5.65504 10.841 7.50039 11.665 9.42498 11.6666C9.79805 11.665 10.1554 11.5047 10.4192 11.2207C10.6831 10.9366 10.8319 10.5517 10.8333 10.1499V9.9574L8.31998 9.33324L8.1629 9.65407C7.91915 10.1616 7.7404 10.5291 7.2854 10.3307C6.38779 9.98474 5.57302 9.42776 4.90029 8.70025C4.22756 7.97275 3.71377 7.09299 3.39623 6.1249C3.20123 5.6699 3.56956 5.4599 4.0354 5.1974L4.33331 5.0399L3.75373 2.33324H3.57498Z" fill="#969696"/>
</svg>
