<svg width="41" height="41" viewBox="0 0 41 41" fill="none" xmlns="http://www.w3.org/2000/svg">
<rect x="1.5" y="1.5" width="38" height="38" rx="6.5" fill="#F8F8F8" stroke="#A50000" stroke-width="3"/>
<path d="M19.878 27.18C18.882 27.18 17.694 27.084 16.314 26.892V25.434C17.706 25.734 18.93 25.884 19.986 25.884C20.874 25.884 21.522 25.788 21.93 25.596C22.338 25.392 22.542 25.02 22.542 24.48V22.968C22.542 22.464 22.398 22.11 22.11 21.906C21.822 21.702 21.318 21.6 20.598 21.6H19.23C18.09 21.6 17.28 21.372 16.8 20.916C16.32 20.46 16.08 19.752 16.08 18.792V17.856C16.08 17.22 16.218 16.704 16.494 16.308C16.782 15.912 17.256 15.618 17.916 15.426C18.588 15.234 19.506 15.138 20.67 15.138C21.45 15.138 22.452 15.204 23.676 15.336V16.65C22.308 16.446 21.264 16.344 20.544 16.344C19.428 16.344 18.69 16.452 18.33 16.668C17.958 16.896 17.772 17.274 17.772 17.802V19.134C17.772 19.542 17.916 19.842 18.204 20.034C18.504 20.214 19.014 20.304 19.734 20.304H21.138C21.942 20.304 22.566 20.4 23.01 20.592C23.466 20.784 23.784 21.078 23.964 21.474C24.156 21.858 24.252 22.38 24.252 23.04V23.886C24.252 24.714 24.096 25.368 23.784 25.848C23.484 26.328 23.016 26.67 22.38 26.874C21.744 27.078 20.91 27.18 19.878 27.18Z" fill="black"/>
</svg>
