<svg width="36" height="36" viewBox="0 0 36 36" fill="none" xmlns="http://www.w3.org/2000/svg">
<circle cx="18" cy="18" r="17.5" stroke="#969696"/>
<path d="M17.184 18.732H13.44V17.124H17.184V13.14H18.792V17.124H22.56V18.732H18.792V22.74H17.184V18.732Z" fill="#969696"/>
<path d="M17.184 18.732H18.184V17.732H17.184V18.732ZM13.44 18.732H12.44V19.732H13.44V18.732ZM13.44 17.124V16.124H12.44V17.124H13.44ZM17.184 17.124V18.124H18.184V17.124H17.184ZM17.184 13.14V12.14H16.184V13.14H17.184ZM18.792 13.14H19.792V12.14H18.792V13.14ZM18.792 17.124H17.792V18.124H18.792V17.124ZM22.56 17.124H23.56V16.124H22.56V17.124ZM22.56 18.732V19.732H23.56V18.732H22.56ZM18.792 18.732V17.732H17.792V18.732H18.792ZM18.792 22.74V23.74H19.792V22.74H18.792ZM17.184 22.74H16.184V23.74H17.184V22.74ZM17.184 17.732H13.44V19.732H17.184V17.732ZM14.44 18.732V17.124H12.44V18.732H14.44ZM13.44 18.124H17.184V16.124H13.44V18.124ZM18.184 17.124V13.14H16.184V17.124H18.184ZM17.184 14.14H18.792V12.14H17.184V14.14ZM17.792 13.14V17.124H19.792V13.14H17.792ZM18.792 18.124H22.56V16.124H18.792V18.124ZM21.56 17.124V18.732H23.56V17.124H21.56ZM22.56 17.732H18.792V19.732H22.56V17.732ZM17.792 18.732V22.74H19.792V18.732H17.792ZM18.792 21.74H17.184V23.74H18.792V21.74ZM18.184 22.74V18.732H16.184V22.74H18.184Z" fill="#969696"/>
</svg>
