<svg width="27" height="27" viewBox="0 0 27 27" fill="none" xmlns="http://www.w3.org/2000/svg">
<rect x="0.5" y="0.5" width="26" height="26" stroke="#969696"/>
<path d="M14.3861 7.65473L14.3861 7.65472C14.5022 7.46203 14.7161 7.3538 14.9298 7.34842C14.9626 7.34758 14.9922 7.35002 15.0206 7.35324L15.0206 7.35324C15.1029 7.36261 15.1848 7.38751 15.2609 7.42958L15.261 7.42964L17.4688 8.65478C17.4689 8.6548 17.4689 8.65482 17.4689 8.65483C17.7723 8.82281 17.8822 9.20422 17.7048 9.49894L17.7048 9.49896L12.7876 17.6625L12.787 17.6634C12.7564 17.713 12.7144 17.7548 12.6648 17.7859C12.6647 17.7859 12.6647 17.7859 12.6646 17.786L9.81143 19.5912L9.81083 19.5916C9.68892 19.6675 9.53331 19.6718 9.4072 19.6026M14.3861 7.65473L9.45531 19.515M14.3861 7.65473L9.46964 15.8174M14.3861 7.65473L14.9324 7.44839C14.7487 7.45299 14.5682 7.54617 14.4718 7.70632L9.55478 15.8698M9.4072 19.6026L9.45531 19.515M9.4072 19.6026C9.40723 19.6027 9.40725 19.6027 9.40728 19.6027L9.45531 19.515M9.4072 19.6026C9.28058 19.5333 9.20288 19.3999 9.21114 19.2559L9.21117 19.2554L9.41436 15.9883L9.41437 15.9881C9.41825 15.9276 9.43726 15.869 9.46964 15.8174M9.45531 19.515C9.36087 19.4633 9.30503 19.3653 9.31098 19.2617L9.51417 15.9945C9.51699 15.9504 9.5309 15.9076 9.55478 15.8698M9.46964 15.8174L9.46912 15.8182L9.55478 15.8698M9.46964 15.8174C9.46984 15.8171 9.47004 15.8167 9.47024 15.8164L9.55478 15.8698M15.6218 9.87568L15.6221 9.87583C15.7112 9.92541 15.7773 10.0075 15.8041 10.1053C15.8041 10.1053 15.8041 10.1053 15.8042 10.1053L15.7077 10.1318C15.7273 10.2028 15.7163 10.2782 15.6774 10.3415L15.6218 9.87568ZM15.6218 9.87568L14.3672 9.18211L14.9909 8.14565L16.9605 9.23528L12.309 16.9611L10.335 15.8713L13.9749 9.83088L15.2312 10.5276L15.28 10.4403L15.2315 10.5278L15.2313 10.5277C15.3203 10.5773 15.4255 10.5909 15.5243 10.5663C15.6232 10.5417 15.7094 10.4804 15.7626 10.3939L15.6218 9.87568ZM10.0366 18.5568L10.1549 16.632L11.7113 17.4963L10.0366 18.5568Z" fill="#7F7F7F" stroke="#969696" stroke-width="0.2"/>
</svg>
