<svg width="284" height="284" viewBox="0 0 284 284" fill="none" xmlns="http://www.w3.org/2000/svg">
<path d="M92.0914 181.3C86.6314 181.3 83.9014 179.54 83.9014 176.02V166.78C83.9014 163.06 86.6314 161.2 92.0914 161.2C93.9514 161.2 95.7314 161.39 97.4314 161.77V163.93C95.5114 163.45 93.7514 163.21 92.1514 163.21C91.3714 163.21 90.6914 163.26 90.1114 163.36C89.5314 163.44 88.9714 163.59 88.4314 163.81C87.2714 164.31 86.6914 165.29 86.6914 166.75V175.87C86.6914 178.11 88.5514 179.23 92.2714 179.23C93.8714 179.23 95.6314 178.99 97.5514 178.51V180.73C95.8514 181.11 94.0314 181.3 92.0914 181.3ZM109.025 181.3C107.965 181.3 107.035 181.23 106.235 181.09C105.455 180.95 104.685 180.71 103.925 180.37C103.125 180.01 102.505 179.46 102.065 178.72C101.645 177.98 101.435 177.08 101.435 176.02V161.53H104.225V175.99C104.225 177.21 104.635 178.08 105.455 178.6C106.275 179.1 107.485 179.35 109.085 179.35C110.685 179.35 111.875 179.1 112.655 178.6C113.455 178.08 113.855 177.21 113.855 175.99V161.53H116.645V176.02C116.645 179.54 114.105 181.3 109.025 181.3ZM127.318 181.3C125.658 181.3 123.678 181.14 121.378 180.82V178.39C123.698 178.89 125.738 179.14 127.498 179.14C128.978 179.14 130.058 178.98 130.738 178.66C131.418 178.32 131.758 177.7 131.758 176.8V174.28C131.758 173.44 131.518 172.85 131.038 172.51C130.558 172.17 129.718 172 128.518 172H126.238C124.338 172 122.988 171.62 122.188 170.86C121.388 170.1 120.988 168.92 120.988 167.32V165.76C120.988 164.7 121.218 163.84 121.678 163.18C122.158 162.52 122.948 162.03 124.048 161.71C125.168 161.39 126.698 161.23 128.638 161.23C129.938 161.23 131.608 161.34 133.648 161.56V163.75C131.368 163.41 129.628 163.24 128.428 163.24C126.568 163.24 125.338 163.42 124.738 163.78C124.118 164.16 123.808 164.79 123.808 165.67V167.89C123.808 168.57 124.048 169.07 124.528 169.39C125.028 169.69 125.878 169.84 127.078 169.84H129.418C130.758 169.84 131.798 170 132.538 170.32C133.298 170.64 133.828 171.13 134.128 171.79C134.448 172.43 134.608 173.3 134.608 174.4V175.81C134.608 177.19 134.348 178.28 133.828 179.08C133.328 179.88 132.548 180.45 131.488 180.79C130.428 181.13 129.038 181.3 127.318 181.3ZM143.589 163.57H136.989V161.53H153.099V163.57H146.529V181H143.589V163.57ZM163.957 181.3C158.517 181.3 155.797 179.54 155.797 176.02V166.81C155.797 163.09 158.517 161.23 163.957 161.23C169.457 161.23 172.207 163.08 172.207 166.78V176.02C172.207 177.9 171.447 179.25 169.927 180.07C168.407 180.89 166.417 181.3 163.957 181.3ZM164.017 179.35C167.597 179.35 169.387 178.23 169.387 175.99V166.72C169.387 164.32 167.587 163.12 163.987 163.12C162.247 163.12 160.907 163.39 159.967 163.93C159.047 164.47 158.587 165.4 158.587 166.72V175.99C158.587 178.23 160.397 179.35 164.017 179.35ZM176.699 161.53H181.049L187.289 177.73L187.379 177.76L193.289 161.53H197.489V181H194.939V164.53H194.789L188.519 181H185.909L179.459 164.53H179.309V181H176.699V161.53Z" fill="white"/>
<path d="M24.5938 141.938V98.25H47.3438V105.125H31.5938V116.75H41.4688V123.75H31.5938V141.938H24.5938ZM51.7812 142V98.25H58.7812V135.125H75.2812V142H51.7812ZM78.2812 142L86.5312 105.312H87.4688L90.3438 118.562L85.1562 142H78.2812ZM89.8438 135.75L91.2812 128.938H95.9688L89.2188 98.25H96.0938L106.156 142H99.2188L97.8438 135.75H89.8438ZM110.156 142V112.375H110.719L117.156 127.812V142H110.156ZM110.156 102.75V98.25H115.719L128.969 130.438L137.594 110.938H138.219V126.812L131.469 142H126.469L110.156 102.75ZM141.406 142V98.25H148.406V142H141.406ZM153.656 142V98.25H160.656V142H153.656ZM165.906 142V109.375H166.406L172.906 119.812V142H165.906ZM165.906 102.75V98.25H171.719L193.719 133.562V142H190.344L165.906 102.75ZM186.719 116.5V98.25H193.719V126.938H193.219L186.719 116.5ZM198.781 130C198.781 134.667 200.844 138.167 204.969 140.5C207.094 141.708 209.135 142.312 211.094 142.312V135.375C210.052 135.375 208.927 134.917 207.719 134C206.427 132.917 205.76 131.583 205.719 130V110.25C205.719 108.542 206.427 107.125 207.844 106C208.802 105.292 209.885 104.917 211.094 104.875V97.9375C206.552 97.9375 203.073 99.8958 200.656 103.812C199.573 105.646 198.948 107.458 198.781 109.25V130ZM214.281 142.312C216.948 142.271 219.594 140.979 222.219 138.438C224.677 135.938 225.927 133.458 225.969 131V119.938H214.281V126.375H218.906V130.125C218.906 131.958 217.948 133.479 216.031 134.688C215.323 135.146 214.74 135.375 214.281 135.375V142.312ZM214.281 104.875C215.823 104.917 217.094 105.646 218.094 107.062C218.677 107.979 219.01 109.042 219.094 110.25V112.25L225.969 109.75C225.969 106.542 224.635 103.688 221.969 101.188C219.594 99.0208 217.031 97.9375 214.281 97.9375V104.875ZM230.594 129.812V109.25C230.594 107.042 231.531 104.792 233.406 102.5C235.906 99.5 239.073 97.9792 242.906 97.9375V104.875C240.74 104.917 239.115 106.083 238.031 108.375C237.698 109.125 237.531 109.75 237.531 110.25V129.812C237.531 132.062 238.698 133.729 241.031 134.812C241.74 135.146 242.344 135.312 242.844 135.312V142.312C240.469 142.312 238.094 141.458 235.719 139.75C232.344 137.25 230.635 133.938 230.594 129.812ZM246.281 142.312V135.312C247.365 135.312 248.49 134.812 249.656 133.812C250.906 132.688 251.552 131.354 251.594 129.812V110.25C251.594 109 251.052 107.792 249.969 106.625C248.927 105.5 247.698 104.917 246.281 104.875V97.9375C250.49 97.9375 253.865 99.75 256.406 103.375C257.865 105.458 258.594 107.417 258.594 109.25V129.812C258.594 134.438 256.531 137.979 252.406 140.438C250.24 141.688 248.198 142.312 246.281 142.312Z" fill="white"/>
<line x1="24.9989" y1="148.5" x2="259.001" y2="148.5" stroke="white" stroke-width="2"/>
<rect x="2" y="2" width="280" height="280" stroke="white" stroke-width="4"/>
</svg>
