<svg width="16" height="17" viewBox="0 0 16 17" fill="none" xmlns="http://www.w3.org/2000/svg">
<path d="M8 0.37915C5.82667 0.37915 5.55533 0.389023 4.702 0.42654C3.85 0.466031 3.27 0.598326 2.76 0.793807C2.234 0.995211 1.78733 1.26573 1.34267 1.70473C0.898 2.14374 0.623333 2.58407 0.42 3.10404C0.222 3.60755 0.0873333 4.18017 0.048 5.02133C0.008 5.8638 0 6.13169 0 8.27737C0 10.4231 0.01 10.6909 0.048 11.5334C0.088 12.3739 0.222 12.9472 0.42 13.4507C0.620861 13.9778 0.935731 14.4553 1.34267 14.85C1.74218 15.252 2.22593 15.5629 2.76 15.7609C3.27067 15.9558 3.85067 16.0894 4.702 16.1282C5.55533 16.1677 5.82667 16.1756 8 16.1756C10.1733 16.1756 10.4447 16.1657 11.298 16.1282C12.1493 16.0887 12.73 15.9558 13.24 15.7609C13.7738 15.5624 14.2574 15.2515 14.6573 14.85C15.0647 14.4557 15.3796 13.9781 15.58 13.4507C15.7773 12.9472 15.9127 12.3739 15.952 11.5334C15.992 10.6909 16 10.4231 16 8.27737C16 6.13169 15.99 5.8638 15.952 5.02133C15.912 4.18083 15.7773 3.60689 15.58 3.10404C15.379 2.57697 15.0642 2.09947 14.6573 1.70473C14.2581 1.30235 13.7743 0.991387 13.24 0.793807C12.73 0.598326 12.1493 0.465373 11.298 0.42654C10.4447 0.387049 10.1733 0.37915 8 0.37915ZM8 1.80083C10.1353 1.80083 10.39 1.81136 11.2333 1.84756C12.0133 1.88376 12.4367 2.01145 12.718 2.12071C13.0927 2.26353 13.358 2.43466 13.6393 2.71044C13.9187 2.98688 14.092 3.24949 14.2367 3.61939C14.346 3.89715 14.4767 4.3151 14.512 5.08517C14.55 5.91843 14.5587 6.16854 14.5587 8.27737C14.5587 10.3862 14.5487 10.637 14.5093 11.4696C14.4687 12.2396 14.3387 12.6576 14.2287 12.9353C14.0985 13.2781 13.894 13.5886 13.6293 13.845C13.3708 14.1065 13.0565 14.3079 12.7093 14.4347C12.4293 14.5426 11.9993 14.6716 11.2193 14.7065C10.37 14.744 10.12 14.7526 7.98 14.7526C5.83933 14.7526 5.58933 14.7427 4.74067 14.7039C3.96 14.6637 3.53 14.5354 3.25 14.4268C2.9026 14.2999 2.58845 14.0977 2.33067 13.8351C2.06305 13.5815 1.85781 13.2708 1.73067 12.9268C1.62067 12.6503 1.49133 12.2258 1.45067 11.4557C1.42067 10.6264 1.41 10.3704 1.41 8.2675C1.41 6.16394 1.42067 5.90725 1.45067 5.06806C1.49133 4.29798 1.62067 3.87411 1.73067 3.59767C1.87067 3.22251 2.05 2.96582 2.33067 2.68872C2.61 2.41294 2.87067 2.23523 3.25 2.09767C3.53 1.98841 3.95067 1.86007 4.73067 1.82058C5.58067 1.79096 5.83067 1.78108 7.97 1.78108L8 1.80083ZM8 4.22163C7.46053 4.22163 6.92634 4.32654 6.42794 4.53036C5.92953 4.73418 5.47667 5.03292 5.09521 5.40953C4.71374 5.78614 4.41115 6.23324 4.2047 6.72531C3.99826 7.21737 3.892 7.74476 3.892 8.27737C3.892 8.80998 3.99826 9.33737 4.2047 9.82943C4.41115 10.3215 4.71374 10.7686 5.09521 11.1452C5.47667 11.5218 5.92953 11.8206 6.42794 12.0244C6.92634 12.2282 7.46053 12.3331 8 12.3331C9.08951 12.3331 10.1344 11.9058 10.9048 11.1452C11.6752 10.3846 12.108 9.35302 12.108 8.27737C12.108 7.20172 11.6752 6.17013 10.9048 5.40953C10.1344 4.64893 9.08951 4.22163 8 4.22163ZM8 10.9101C6.52667 10.9101 5.33333 9.73196 5.33333 8.27737C5.33333 6.82278 6.52667 5.64463 8 5.64463C9.47333 5.64463 10.6667 6.82278 10.6667 8.27737C10.6667 9.73196 9.47333 10.9101 8 10.9101ZM13.2307 4.06169C13.2214 4.30695 13.1162 4.53911 12.9372 4.70939C12.7582 4.87967 12.5193 4.97481 12.2707 4.97481C12.0221 4.97481 11.7832 4.87967 11.6041 4.70939C11.4251 4.53911 11.3199 4.30695 11.3107 4.06169C11.3107 3.81033 11.4118 3.56925 11.5918 3.39151C11.7719 3.21376 12.0161 3.11391 12.2707 3.11391C12.5253 3.11391 12.7695 3.21376 12.9495 3.39151C13.1295 3.56925 13.2307 3.81033 13.2307 4.06169Z" fill="white"/>
</svg>
