<svg width="17" height="17" viewBox="0 0 17 17" fill="none" xmlns="http://www.w3.org/2000/svg">
<path d="M8.20587 4.14153C9.50499 4.14153 10.7262 4.70869 11.623 5.59616V5.59895C11.623 5.17306 11.9134 4.85206 12.3164 4.85206H12.4192C13.0503 4.85206 13.1792 5.4409 13.1792 5.62763L13.1828 12.2539C13.1381 12.6882 13.6361 12.912 13.9117 12.6336C14.9891 11.5399 16.279 7.01232 13.2416 4.38839C10.411 1.9428 6.61349 2.34562 4.59327 3.72052C2.44625 5.18285 1.07205 8.4187 2.40729 11.458C3.86225 14.7729 8.02524 15.7604 10.4995 14.7757C11.7526 14.2757 12.3313 15.9478 11.0301 16.494C9.06368 17.322 3.59095 17.2381 1.03521 12.8658C-0.692462 9.91389 -0.600376 4.71918 3.98054 2.02812C7.48477 -0.0300416 12.1054 0.539922 14.8906 3.41211C17.8026 6.41508 17.6333 12.0378 14.7921 14.2246C13.5058 15.2177 11.5932 14.2505 11.606 12.8043L11.5925 12.3301C10.6964 13.2085 9.50428 13.7204 8.20516 13.7204C5.63738 13.7204 3.37915 11.4902 3.37915 8.95649C3.37915 6.3976 5.63809 4.14153 8.20587 4.14153ZM11.4367 8.77326C11.3396 6.91791 9.94488 5.80176 8.26041 5.80176H8.19666C6.25223 5.80176 5.17341 7.31164 5.17341 9.02572C5.17341 10.9468 6.4782 12.1595 8.18816 12.1595C10.0958 12.1595 11.3502 10.7797 11.4409 9.14811L11.4367 8.77326Z" fill="white"/>
</svg>
