<svg width="19" height="17" viewBox="0 0 19 17" fill="none" xmlns="http://www.w3.org/2000/svg">
<path d="M14.6008 16.9769C10.73 16.9725 7.01911 15.6095 4.28202 13.1869C1.54492 10.7643 0.00501729 7.47975 0 4.05365C0 3.02986 0.45949 2.04801 1.27739 1.32408C2.09529 0.600154 3.20459 0.193455 4.36128 0.193455C4.60621 0.191804 4.85073 0.211479 5.09132 0.252197C5.3239 0.28266 5.55254 0.333253 5.77395 0.403249C5.92967 0.45161 6.06844 0.535111 6.17652 0.645495C6.28461 0.755879 6.35827 0.889322 6.39022 1.03263L7.68912 6.06767C7.72413 6.20434 7.71991 6.34659 7.67686 6.48145C7.6338 6.61631 7.55327 6.73947 7.44261 6.83971C7.31936 6.95719 7.30988 6.96558 6.14371 7.50266C7.07759 9.31599 8.7161 10.7722 10.761 11.6062C11.3772 10.5656 11.3867 10.5572 11.5195 10.4482C11.6327 10.3502 11.7719 10.2789 11.9242 10.2408C12.0766 10.2027 12.2373 10.199 12.3917 10.23L18.0803 11.3796C18.2371 11.4118 18.382 11.4788 18.5014 11.5742C18.6208 11.6696 18.7108 11.7904 18.763 11.9251C18.843 12.1243 18.9033 12.3293 18.9431 12.5377C18.9813 12.7486 19.0003 12.9619 19 13.1755C18.9825 14.1949 18.5101 15.1668 17.6859 15.879C16.8617 16.5912 15.7526 16.9859 14.6008 16.9769ZM4.36128 1.8718C3.70827 1.87401 3.08272 2.1046 2.62097 2.51329C2.15922 2.92199 1.8987 3.47567 1.89621 4.05365C1.89872 7.03531 3.23804 9.89421 5.62007 12.0026C8.0021 14.1109 11.2321 15.2964 14.6008 15.2986C15.2538 15.2964 15.8794 15.0658 16.3411 14.6571C16.8029 14.2484 17.0634 13.6947 17.0659 13.1167V12.8398L12.6667 11.9419L12.3917 12.4034C11.9651 13.1335 11.6522 13.6622 10.8558 13.3769C9.28466 12.8791 7.85854 12.0779 6.68103 11.0313C5.50353 9.9847 4.6042 8.7191 4.0484 7.32643C3.70708 6.67187 4.3518 6.36977 5.16716 5.99214L5.68862 5.76557L4.67415 1.8718H4.36128Z" fill="white"/>
</svg>
