<svg width="16" height="17" viewBox="0 0 16 17" fill="none" xmlns="http://www.w3.org/2000/svg">
<path d="M10.456 0.37915H5.544C1.06133 0.37915 0 1.42698 0 5.85262V10.7021C0 15.1278 1.06133 16.1756 5.544 16.1756H10.456C14.9387 16.1756 16 15.1278 16 10.7021V5.85262C16 1.42698 14.9273 0.37915 10.456 0.37915ZM12.9173 11.6493H11.7547C11.3147 11.6493 11.1787 11.3037 10.388 10.5126C9.69933 9.85438 9.39467 9.76552 9.22533 9.76552C8.988 9.76552 8.92 9.83266 8.92 10.1558V11.1925C8.92 11.4715 8.83 11.6387 8.08467 11.6387C6.854 11.6387 5.48733 10.9029 4.528 9.53121C3.08267 7.52506 2.68667 6.01979 2.68667 5.70782C2.68667 5.54064 2.75467 5.38465 3.082 5.38465H4.24467C4.538 5.38465 4.65133 5.51826 4.76467 5.83024C5.34 7.46912 6.3 8.90725 6.69533 8.90725C6.842 8.90725 6.91 8.84012 6.91 8.47285V6.77737C6.86467 5.99676 6.44667 5.93028 6.44667 5.65187C6.44667 5.5176 6.56 5.38399 6.74 5.38399H8.56933C8.818 5.38399 8.908 5.5176 8.908 5.8072V8.09308C8.908 8.33792 9.02133 8.42743 9.08867 8.42743C9.23533 8.42743 9.36 8.33792 9.63067 8.0707C10.4667 7.14529 11.0647 5.71835 11.0647 5.71835C11.144 5.55117 11.2793 5.39518 11.5733 5.39518H12.736C13.086 5.39518 13.1653 5.57289 13.086 5.81839C12.9393 6.48776 11.5167 8.47153 11.5167 8.47153C11.3927 8.67228 11.3473 8.76114 11.5167 8.98492C11.6407 9.1521 12.0473 9.49764 12.3187 9.80962C12.8153 10.3671 13.1987 10.8351 13.3007 11.1589C13.414 11.4814 13.244 11.6486 12.9167 11.6486L12.9173 11.6493Z" fill="white"/>
</svg>
