<svg width="16" height="17" viewBox="0 0 16 17" fill="none" xmlns="http://www.w3.org/2000/svg">
<path d="M11.6654 9.89035C11.4664 9.79181 10.4878 9.31698 10.3056 9.25085C10.1227 9.18538 9.9901 9.15297 9.8568 9.35005C9.72484 9.54646 9.34302 9.98889 9.22714 10.1198C9.11126 10.2514 8.9947 10.2673 8.79576 10.1694C8.59681 10.0702 7.9551 9.86323 7.19483 9.19397C6.60335 8.67285 6.20345 8.02938 6.08757 7.83231C5.97168 7.63589 6.07551 7.52942 6.17465 7.43154C6.26441 7.34359 6.37426 7.20206 6.4734 7.08765C6.57321 6.97258 6.60603 6.89058 6.67301 6.75898C6.73933 6.62803 6.70651 6.51362 6.65627 6.41509C6.60603 6.31655 6.20814 5.34903 6.04269 4.95554C5.88059 4.57264 5.71647 4.62488 5.59456 4.61827C5.46736 4.61327 5.34005 4.61106 5.21275 4.61166C5.08012 4.61166 4.86443 4.66059 4.68223 4.85767C4.50003 5.05408 3.98559 5.52957 3.98559 6.49709C3.98559 7.46395 4.69898 8.3984 4.79811 8.53C4.89792 8.66095 6.20211 10.6462 8.19893 11.4974C8.67385 11.6997 9.04427 11.8208 9.33365 11.9107C9.81058 12.0608 10.2446 12.0397 10.5869 11.9887C10.9694 11.9325 11.7645 11.5132 11.9306 11.0543C12.0968 10.5953 12.0968 10.2018 12.0465 10.1198C11.997 10.0378 11.8643 9.98889 11.6647 9.89035M8.03347 14.7861H8.03079C6.84501 14.7862 5.68102 14.4715 4.66079 13.8748L4.41898 13.7333L1.91308 14.3827L2.58159 11.9702L2.42418 11.7229C1.76132 10.6808 1.41066 9.47483 1.41271 8.24431C1.41338 4.64009 4.38415 1.70778 8.03615 1.70778C9.80455 1.70778 11.4671 2.38894 12.717 3.6243C13.3338 4.23048 13.8226 4.9514 14.1552 5.74533C14.4878 6.53926 14.6577 7.39044 14.6549 8.2496C14.6529 11.8538 11.6828 14.7861 8.03347 14.7861ZM13.6689 2.68588C12.9309 1.95242 12.0527 1.37086 11.0854 0.974899C10.118 0.57894 9.08067 0.376455 8.03347 0.379177C3.64263 0.379177 0.0689942 3.90734 0.0669847 8.24365C0.0669847 9.62979 0.433391 10.9829 1.1307 12.1752L0 16.251L4.22338 15.1571C5.39132 15.7853 6.7001 16.1146 8.03012 16.1147H8.03347C12.4236 16.1147 15.998 12.5866 16 8.2496C16.0032 7.21613 15.7988 6.19229 15.3987 5.23729C14.9986 4.28229 14.4107 3.4151 13.6689 2.68588Z" fill="white"/>
</svg>
