<svg width="24" height="24" viewBox="0 0 24 24" fill="none" xmlns="http://www.w3.org/2000/svg">
<rect width="24" height="24" rx="5" fill="white"/>
<path d="M11.336 17.16C10.4507 17.16 9.39467 17.0747 8.168 16.904V15.608C9.40533 15.8747 10.4933 16.008 11.432 16.008C12.2213 16.008 12.7973 15.9227 13.16 15.752C13.5227 15.5707 13.704 15.24 13.704 14.76V13.416C13.704 12.968 13.576 12.6533 13.32 12.472C13.064 12.2907 12.616 12.2 11.976 12.2H10.76C9.74667 12.2 9.02667 11.9973 8.6 11.592C8.17333 11.1867 7.96 10.5573 7.96 9.704V8.872C7.96 8.30667 8.08267 7.848 8.328 7.496C8.584 7.144 9.00533 6.88267 9.592 6.712C10.1893 6.54133 11.0053 6.456 12.04 6.456C12.7333 6.456 13.624 6.51467 14.712 6.632V7.8C13.496 7.61867 12.568 7.528 11.928 7.528C10.936 7.528 10.28 7.624 9.96 7.816C9.62933 8.01867 9.464 8.35467 9.464 8.824V10.008C9.464 10.3707 9.592 10.6373 9.848 10.808C10.1147 10.968 10.568 11.048 11.208 11.048H12.456C13.1707 11.048 13.7253 11.1333 14.12 11.304C14.5253 11.4747 14.808 11.736 14.968 12.088C15.1387 12.4293 15.224 12.8933 15.224 13.48V14.232C15.224 14.968 15.0853 15.5493 14.808 15.976C14.5413 16.4027 14.1253 16.7067 13.56 16.888C12.9947 17.0693 12.2533 17.16 11.336 17.16Z" fill="black"/>
</svg>
